<svg width="93" height="36" viewBox="0 0 93 36" fill="none" xmlns="http://www.w3.org/2000/svg">
<path d="M0.264 35V0.919998H12.408C18.008 0.919998 22.328 2.408 25.368 5.384C28.408 8.328 29.928 12.536 29.928 18.008C29.928 23.448 28.424 27.64 25.416 30.584C22.44 33.528 18.2 35 12.696 35H0.264ZM8.616 28.184H12.408C15.48 28.184 17.736 27.352 19.176 25.688C20.616 24.024 21.336 21.448 21.336 17.96C21.336 14.472 20.616 11.896 19.176 10.232C17.736 8.568 15.48 7.736 12.408 7.736H8.616V28.184Z" fill="white"/>
<path d="M34.227 35V28.808L47.811 15.128H34.899V9.176H57.843V15.368L44.019 29.048H58.179V35H34.227ZM77.4585 35.768C74.3865 35.768 71.7305 35.064 69.4905 33.656C67.2825 32.216 65.5705 30.168 64.3545 27.512C63.1705 24.856 62.5785 21.688 62.5785 18.008C62.5785 14.328 63.1705 11.16 64.3545 8.504C65.5705 5.816 67.2825 3.752 69.4905 2.312C71.7305 0.871999 74.3865 0.151999 77.4585 0.151999C80.4985 0.151999 83.1225 0.871999 85.3305 2.312C87.5705 3.752 89.2825 5.816 90.4665 8.504C91.6825 11.16 92.2905 14.328 92.2905 18.008C92.2905 21.656 91.6825 24.808 90.4665 27.464C89.2825 30.12 87.5865 32.168 85.3785 33.608C83.1705 35.048 80.5305 35.768 77.4585 35.768ZM77.4585 28.952C79.4745 28.952 81.0105 28.04 82.0665 26.216C83.1545 24.392 83.6985 21.656 83.6985 18.008C83.6985 14.328 83.1545 11.576 82.0665 9.752C81.0105 7.896 79.4745 6.968 77.4585 6.968C73.2665 6.968 71.1705 10.648 71.1705 18.008C71.1705 25.304 73.2665 28.952 77.4585 28.952Z" fill="url(#paint0_linear_353_902)"/>
<defs>
<linearGradient id="paint0_linear_353_902" x1="46" y1="-2" x2="46" y2="38" gradientUnits="userSpaceOnUse">
<stop stop-color="#D946EF"/>
<stop offset="1" stop-color="#D946EF"/>
</linearGradient>
</defs>
</svg>
